<svg xmlns="http://www.w3.org/2000/svg" width="80" height="80" viewBox="0 0 80 80">
  <g id="Group_1489" data-name="Group 1489" transform="translate(-492 -985)">
    <g id="Group_1475" data-name="Group 1475" transform="translate(492 985)">
      <g id="Path_116" data-name="Path 116" fill="#fff" opacity="0.7">
        <path d="M 40 78 C 34.8691520690918 78 29.89284706115723 76.99556732177734 25.20929336547852 75.01458740234375 C 20.68453025817871 73.10077667236328 16.62044715881348 70.36054992675781 13.1299409866333 66.87005615234375 C 9.639447212219238 63.37955474853516 6.899223327636719 59.31547164916992 4.985411643981934 54.79070663452148 C 3.004435300827026 50.10715484619141 2 45.1308479309082 2 40 C 2 34.8691520690918 3.004435300827026 29.89284706115723 4.985411643981934 25.20929336547852 C 6.899223327636719 20.68453025817871 9.639447212219238 16.62044715881348 13.1299409866333 13.1299409866333 C 16.62044715881348 9.639447212219238 20.68453025817871 6.899223327636719 25.20929336547852 4.985411643981934 C 29.89284706115723 3.004435300827026 34.8691520690918 2 40 2 C 45.1308479309082 2 50.10715484619141 3.004435300827026 54.79070663452148 4.985411643981934 C 59.31547164916992 6.899223327636719 63.37955474853516 9.639447212219238 66.87005615234375 13.1299409866333 C 70.36054992675781 16.62044715881348 73.10077667236328 20.68453025817871 75.01458740234375 25.20929336547852 C 76.99556732177734 29.89284706115723 78 34.8691520690918 78 40 C 78 45.1308479309082 76.99556732177734 50.10715484619141 75.01458740234375 54.79070663452148 C 73.10077667236328 59.31547164916992 70.36054992675781 63.37955474853516 66.87005615234375 66.87005615234375 C 63.37955474853516 70.36054992675781 59.31547164916992 73.10077667236328 54.79070663452148 75.01458740234375 C 50.10715484619141 76.99556732177734 45.1308479309082 78 40 78 Z" stroke="none"/>
        <path d="M 40 4 C 35.13827133178711 4 30.42408752441406 4.951286315917969 25.98839950561523 6.827415466308594 C 21.7020149230957 8.640403747558594 17.85161590576172 11.23668670654297 14.54415893554688 14.54415893554688 C 11.23668670654297 17.85161590576172 8.640403747558594 21.7020149230957 6.827415466308594 25.98839950561523 C 4.951286315917969 30.42408752441406 4 35.13827133178711 4 40 C 4 44.86172866821289 4.951286315917969 49.57591247558594 6.827415466308594 54.01160049438477 C 8.640403747558594 58.2979736328125 11.23668670654297 62.14836883544922 14.54415893554688 65.45584106445313 C 17.85161590576172 68.76331329345703 21.7020149230957 71.35960388183594 25.98839950561523 73.17258453369141 C 30.42408752441406 75.04871368408203 35.13827133178711 76 40 76 C 44.86172866821289 76 49.57591247558594 75.04871368408203 54.01160049438477 73.17258453369141 C 58.2979736328125 71.35960388183594 62.14836883544922 68.76331329345703 65.45584106445313 65.45584106445313 C 68.76331329345703 62.14836883544922 71.35960388183594 58.2979736328125 73.17258453369141 54.01160049438477 C 75.04871368408203 49.57591247558594 76 44.86172866821289 76 40 C 76 35.13827133178711 75.04871368408203 30.42408752441406 73.17258453369141 25.98839950561523 C 71.35960388183594 21.7020149230957 68.76331329345703 17.85161590576172 65.45584106445313 14.54415893554688 C 62.14836883544922 11.23668670654297 58.2979736328125 8.640403747558594 54.01160049438477 6.827415466308594 C 49.57591247558594 4.951286315917969 44.86172866821289 4 40 4 M 40 0 C 62.09138488769531 0 80 17.90859985351563 80 40 C 80 62.09138488769531 62.09138488769531 80 40 80 C 17.90859985351563 80 0 62.09138488769531 0 40 C 0 17.90859985351563 17.90859985351563 0 40 0 Z" stroke="none" fill="#fff"/>
      </g>
      <path id="Polygon_13" data-name="Polygon 13" d="M16.495,0,32.99,33.814H0Z" transform="translate(61.856 23.918) rotate(90)"/>
    </g>
    <g id="Path_117" data-name="Path 117" transform="translate(492 985)" fill="none">
      <path d="M40,0A40,40,0,1,1,0,40,40,40,0,0,1,40,0Z" stroke="none"/>
      <path d="M 40 2 C 34.8691520690918 2 29.89284515380859 3.004432678222656 25.20929336547852 4.98541259765625 C 20.68452835083008 6.899223327636719 16.62044525146484 9.639450073242188 13.12994384765625 13.12994384765625 C 9.639450073242188 16.62044525146484 6.899223327636719 20.68452835083008 4.98541259765625 25.20929336547852 C 3.004432678222656 29.89284515380859 2 34.8691520690918 2 40 C 2 45.1308479309082 3.004432678222656 50.10715484619141 4.98541259765625 54.79070663452148 C 6.899223327636719 59.31546783447266 9.639450073242188 63.37955474853516 13.12994384765625 66.87005615234375 C 16.62044525146484 70.36054992675781 20.68452835083008 73.10077667236328 25.20929336547852 75.01458740234375 C 29.89284515380859 76.99556732177734 34.8691520690918 78 40 78 C 45.1308479309082 78 50.10715484619141 76.99556732177734 54.79070663452148 75.01458740234375 C 59.31546783447266 73.10077667236328 63.37955474853516 70.36054992675781 66.87005615234375 66.87005615234375 C 70.36054992675781 63.37955474853516 73.10077667236328 59.31546783447266 75.01458740234375 54.79070663452148 C 76.99556732177734 50.10715484619141 78 45.1308479309082 78 40 C 78 34.8691520690918 76.99556732177734 29.89284515380859 75.01458740234375 25.20929336547852 C 73.10077667236328 20.68452835083008 70.36054992675781 16.62044525146484 66.87005615234375 13.12994384765625 C 63.37955474853516 9.639450073242188 59.31546783447266 6.899223327636719 54.79070663452148 4.98541259765625 C 50.10715484619141 3.004432678222656 45.1308479309082 2 40 2 M 40 0 C 62.09138870239258 0 80 17.90861129760742 80 40 C 80 62.09138870239258 62.09138870239258 80 40 80 C 17.90861129760742 80 0 62.09138870239258 0 40 C 0 17.90861129760742 17.90861129760742 0 40 0 Z" stroke="none" fill="#fff"/>
    </g>
  </g>
</svg>
