<?xml version="1.0" standalone="no"?>
<!DOCTYPE svg PUBLIC "-//W3C//DTD SVG 1.1//EN" "http://www.w3.org/Graphics/SVG/1.1/DTD/svg11.dtd" >
<svg xmlns="http://www.w3.org/2000/svg">
<metadata>Generated by IcoMoon</metadata>
<defs>
<font id="icomoon" horiz-adv-x="1024">
<font-face units-per-em="1024" ascent="960" descent="-64" />
<missing-glyph horiz-adv-x="1024" />
<glyph unicode="&#x20;" horiz-adv-x="512" d="" />
<glyph unicode="&#xe900;" glyph-name="close" d="M1024 856.883l-103.117 103.117-408.883-408.883-408.883 408.883-103.117-103.117 408.883-408.883-408.883-408.883 103.117-103.117 408.883 408.883 408.883-408.883 103.117 103.117-408.883 408.883z" />
<glyph unicode="&#xe901;" glyph-name="hamburger" horiz-adv-x="1463" d="M0 374.857v146.286h1462.857v-146.286zM0-64v146.286h1462.857v-146.286zM0 813.714v146.286h1462.857v-146.286z" />
<glyph unicode="&#xe902;" glyph-name="info" d="M512-21.333c-260.267 0-469.333 209.067-469.333 469.333s209.067 469.333 469.333 469.333 469.333-209.067 469.333-469.333-209.067-469.333-469.333-469.333zM512 832c-213.333 0-384-170.667-384-384s170.667-384 384-384 384 170.667 384 384-170.667 384-384 384zM512 234.667c-25.6 0-42.667 17.067-42.667 42.667v170.667c0 25.6 17.067 42.667 42.667 42.667s42.667-17.067 42.667-42.667v-170.667c0-25.6-17.067-42.667-42.667-42.667zM512 576c-25.6 0-42.667 17.067-42.667 42.667s17.067 42.667 42.667 42.667v0c25.6 0 42.667-17.067 42.667-42.667s-17.067-42.667-42.667-42.667z" />
<glyph unicode="&#xe903;" glyph-name="filter" horiz-adv-x="1138" d="M1137.778 960h-1137.778l455.111-538.169v-372.053l227.556-113.778v485.831z" />
<glyph unicode="&#xe904;" glyph-name="search" d="M1004.8 44.8l-198.72 198.72c56.192 74.944 89.92 167.616 89.92 268.48 0 247.424-200.576 448-448 448s-448-200.576-448-448 200.576-448 448-448c100.864 0 193.536 33.728 268.416 89.92l198.784-198.72c11.776-11.776 24.32-19.2 44.8-19.2 35.392 0 64 28.608 64 64 0 14.016-3.456 29.056-19.2 44.8zM128 512c0 176.768 143.232 320 320 320s320-143.232 320-320-143.232-320-320-320-320 143.232-320 320z" />
<glyph unicode="&#xe905;" glyph-name="close-thin" d="M794.624 743.936l-286.72-287.744-287.744 287.744-19.456-19.456 286.72-287.744-286.72-287.744 19.456-19.456 287.744 287.744 286.72-287.744 20.48 19.456-287.744 287.744 287.744 287.744z" />
<glyph unicode="&#xe906;" glyph-name="eye" horiz-adv-x="1378" d="M693.169-64c-433.231 0-677.415 472.615-685.292 496.246-7.877 7.877-7.877 23.631 0 31.508 7.877 23.631 252.062 496.246 685.292 496.246s677.415-472.615 685.292-496.246c7.877-7.877 7.877-23.631 0-31.508-15.754-23.631-259.938-496.246-685.292-496.246zM86.646 448c47.262-86.646 267.815-433.231 606.523-433.231s559.262 346.585 606.523 433.231c-47.262 86.646-267.815 433.231-606.523 433.231s-559.262-346.585-606.523-433.231zM693.169 227.446c-126.031 0-220.554 102.4-220.554 220.554s94.523 220.554 220.554 220.554 220.554-94.523 220.554-220.554-102.4-220.554-220.554-220.554zM693.169 589.785c-78.769 0-141.785-63.015-141.785-141.785s63.015-141.785 141.785-141.785 141.785 63.015 141.785 141.785-70.892 141.785-141.785 141.785z" />
<glyph unicode="&#xe907;" glyph-name="calendar" horiz-adv-x="931" d="M791.273-64h-651.636c-77.048 0.176-139.46 62.588-139.636 139.619v651.653c0.176 77.048 62.588 139.46 139.619 139.636h651.653c77.048-0.176 139.46-62.588 139.636-139.619v-651.653c-0.176-77.048-62.588-139.46-139.619-139.636h-0.017zM139.636 773.818c-25.706 0-46.545-20.839-46.545-46.545v0-651.636c0-25.706 20.839-46.545 46.545-46.545v0h651.636c25.706 0 46.545 20.839 46.545 46.545v0 651.636c0 25.706-20.839 46.545-46.545 46.545v0zM651.636 680.727c-25.706 0-46.545 20.839-46.545 46.545v0 186.182c0 25.706 20.839 46.545 46.545 46.545s46.545-20.839 46.545-46.545v0-186.182c0-25.706-20.839-46.545-46.545-46.545v0zM279.273 680.727c-25.706 0-46.545 20.839-46.545 46.545v0 186.182c0 25.706 20.839 46.545 46.545 46.545s46.545-20.839 46.545-46.545v0-186.182c0-25.706-20.839-46.545-46.545-46.545v0zM884.364 494.545h-837.818c-25.706 0-46.545 20.839-46.545 46.545s20.839 46.545 46.545 46.545v0h837.818c25.706 0 46.545-20.839 46.545-46.545s-20.839-46.545-46.545-46.545v0z" />
<glyph unicode="&#xe908;" glyph-name="call" d="M512 576c-68.48 0-134.4-10.667-196.267-30.72v-132.48c0-16.853-9.813-31.36-23.893-38.4-41.6-20.907-79.787-47.573-113.707-78.933-7.68-7.467-18.133-12.16-29.867-12.16s-22.4 4.693-30.080 12.587l-105.6 105.6c-7.893 7.893-12.587 18.56-12.587 30.293s4.693 22.4 12.587 30.293c129.92 123.52 305.92 199.253 499.413 199.253s369.493-75.733 499.413-199.253c7.893-7.68 12.587-18.56 12.587-30.293s-4.693-22.4-12.587-30.080l-105.6-105.6c-7.68-7.68-18.347-12.587-30.080-12.587-11.52 0-22.187 4.693-29.867 12.16-33.92 31.36-72.107 58.027-113.707 78.933-14.080 7.040-23.893 21.547-23.893 38.4v132.48c-61.867 19.84-127.787 30.507-196.267 30.507z" />
<glyph unicode="&#xe909;" glyph-name="camera" d="M725.333 512v149.333c0 23.467-19.2 42.667-42.667 42.667h-512c-23.467 0-42.667-19.2-42.667-42.667v-426.667c0-23.467 19.2-42.667 42.667-42.667h512c23.467 0 42.667 19.2 42.667 42.667v149.333l170.667-170.667v469.333l-170.667-170.667z" />
<glyph unicode="&#xe90a;" glyph-name="camera-off" d="M896 682.667l-170.667-170.667v149.333c0 23.467-19.2 42.667-42.667 42.667h-263.68l477.013-477.013v455.68zM139.733 874.667l-54.4-54.4 116.267-116.267h-30.933c-23.467 0-42.667-19.2-42.667-42.667v-426.667c0-23.467 19.2-42.667 42.667-42.667h512c8.747 0 16.427 3.2 23.253 7.893l135.893-135.893 54.187 54.4-756.267 756.267z" />
<glyph unicode="&#xe90b;" glyph-name="chat" d="M853.333 874.667h-682.667c-47.147 0-84.907-38.187-84.907-85.333l-0.427-768 170.667 170.667h597.333c47.147 0 85.333 38.187 85.333 85.333v512c0 47.147-38.187 85.333-85.333 85.333zM256 576h512v-85.333h-512v85.333zM597.333 362.667h-341.333v85.333h341.333v-85.333zM768 618.667h-512v85.333h512v-85.333z" />
<glyph unicode="&#xe90c;" glyph-name="mic" d="M512 362.667c70.613 0 127.573 57.387 127.573 128l0.427 256c0 70.827-57.173 128-128 128-70.613 0-128-57.173-128-128v-256c0-70.613 57.387-128 128-128zM738.133 490.667c0-128-108.16-217.6-226.133-217.6-117.76 0-226.133 89.6-226.133 217.6h-72.533c0-145.707 116.053-266.027 256-286.72v-139.947h85.333v139.947c139.947 20.693 256 141.013 256 286.72h-72.533z" />
<glyph unicode="&#xe90d;" glyph-name="mic-off" d="M810.667 490.667h-72.533c0-31.787-6.613-61.227-18.56-87.467l52.48-52.48c24.32 41.6 38.613 89.173 38.613 139.947zM639.36 483.627c0 2.347 0.64 4.693 0.64 7.040v256c0 70.827-57.387 128-128 128s-128-57.173-128-128v-7.893l255.36-255.147zM182.4 832l-54.4-54.4 256.427-256.427v-30.72c0-70.613 56.96-128 127.573-128 9.6 0 18.773 1.28 27.733 3.2l70.827-70.827c-30.507-14.080-64-21.973-98.56-21.973-117.76 0-226.133 89.6-226.133 217.6h-72.533c0-145.707 116.053-266.027 256-286.72v-139.733h85.333v139.947c38.613 5.76 75.307 19.2 108.373 38.613l178.56-178.56 54.4 54.187-713.6 713.813z" />
<glyph unicode="&#xe90e;" glyph-name="screen-share" d="M853.333 192c46.933 0 84.907 38.4 84.907 85.333l0.427 426.667c0 47.36-38.4 85.333-85.333 85.333h-682.667c-47.36 0-85.333-37.973-85.333-85.333v-426.667c0-46.933 37.973-85.333 85.333-85.333h-170.667v-85.333h1024v85.333h-170.667zM554.667 342.613v93.44c-118.613 0-196.693-36.267-256-116.053 23.893 113.92 90.027 227.413 256 250.453v90.88l170.667-159.147-170.667-159.573z" />
<glyph unicode="&#xe90f;" glyph-name="screen-share-off" d="M905.387 191.147l85.333-85.333h33.28v85.333h-118.613zM938.24 276.48l0.427 426.667c0 47.36-38.4 85.333-85.333 85.333h-545.28l223.147-223.147c7.68 1.707 15.36 2.987 23.467 4.267v90.88l170.667-159.147-67.413-62.72 236.373-236.373c26.027 14.080 43.947 42.24 43.947 74.24zM101.973 886.187l-54.613-54.187 65.707-65.707c-17.067-15.36-27.733-37.973-27.733-63.147v-426.667c0-46.933 37.973-85.333 85.333-85.333h-170.667v-85.333h773.547l115.627-115.627 54.187 54.187-841.387 841.813zM298.667 319.147c13.227 63.147 39.253 125.867 88.32 173.227l67.84-67.84c-65.707-16.213-115.2-50.347-156.16-105.387z" />
<glyph unicode="&#xe910;" glyph-name="heart" horiz-adv-x="1170" d="M1056.731 889.969c-53.228 43.376-121.889 69.652-196.688 69.652-90.812 0-172.578-38.731-229.679-100.577l-0.193-0.212-45.058-46.439-44.951 46.439c-57.292 62.028-139.039 100.739-229.828 100.739-74.771 0-143.409-26.257-197.197-70.053l0.57 0.45c-69.798-60.515-113.685-149.318-113.685-248.372 0-88.017 34.652-167.941 91.058-226.873l-0.114 0.12 442.288-456.953c13.062-13.635 31.418-22.109 51.753-22.109s38.691 8.474 51.728 22.084l0.024 0.026 442.288 456.953c56.468 58.817 91.24 138.836 91.24 226.976 0 99.013-43.879 187.777-113.253 247.908l-0.409 0.347z" />
<glyph unicode="&#xe911;" glyph-name="arrow-thin" d="M852.126 596.322c5.758 5.685 13.674 9.197 22.41 9.197s16.652-3.512 22.413-9.2l-0.003 0.003c5.737-5.654 9.29-13.508 9.29-22.193s-3.554-16.54-9.287-22.19l-0.004-0.004-362.338-358.4c-5.758-5.685-13.674-9.197-22.41-9.197s-16.652 3.512-22.413 9.2l0.003-0.003-362.338 358.4c-5.727 5.658-9.274 13.511-9.274 22.193s3.547 16.535 9.271 22.19l0.003 0.003c5.758 5.685 13.674 9.197 22.41 9.197s16.652-3.512 22.413-9.2l-0.003 0.003 340.126-327.010z" />
<glyph unicode="&#xe912;" glyph-name="send" horiz-adv-x="1195" d="M0.597-64l1194.069 512-1194.069 512-0.597-398.251 853.333-113.749-853.333-113.749z" />
<glyph unicode="&#xe913;" glyph-name="zoom-minus" horiz-adv-x="1011" d="M466.97 146.445c-187.471 0-340.021 152.55-340.021 340.021s152.55 340.021 340.021 340.021c187.471 0 340.021-152.55 340.021-340.021 0-187.602-152.418-340.021-340.021-340.021zM466.97 760.845c-151.237 0-274.379-123.143-274.379-274.379s123.143-274.379 274.379-274.379 274.379 123.143 274.379 274.379-123.011 274.379-274.379 274.379zM851.102 69.514c-8.402 0-16.804 3.151-23.237 9.584l-167.122 167.122c-12.866 12.866-12.866 33.608 0 46.474s33.608 12.866 46.474 0l167.122-167.122c12.866-12.866 12.866-33.608 0-46.474-6.433-6.302-14.835-9.584-23.237-9.584zM582.236 453.645h-230.4c-18.117 0-32.821 14.704-32.821 32.821s14.704 32.821 32.821 32.821h230.4c18.117 0 32.821-14.704 32.821-32.821s-14.704-32.821-32.821-32.821z" />
<glyph unicode="&#xe914;" glyph-name="favourite" horiz-adv-x="1073" d="M568.333 940.185l146.5-296.935 327.694-47.57c17.179-2.819 30.126-17.557 30.126-35.319 0-9.866-3.995-18.799-10.455-25.27v0l-237.205-231.124 55.939-326.335c0.279-1.678 0.439-3.612 0.439-5.584 0-19.753-16.013-35.767-35.767-35.767-5.902 0-11.469 1.429-16.376 3.961l0.2-0.094-293.287 154.083-293.287-154.083c-4.726-2.462-10.321-3.906-16.254-3.906-19.753 0-35.767 16.013-35.767 35.767 0 1.985 0.162 3.933 0.473 5.83l-0.028-0.207 56.011 326.335-236.561 231.124c-6.46 6.47-10.455 15.403-10.455 25.27 0 17.762 12.947 32.5 29.919 35.291l0.207 0.028 327.694 47.57 146.5 296.935c6.046 11.682 18.041 19.528 31.868 19.528s25.822-7.846 31.774-19.329l0.094-0.199z" />
<glyph unicode="&#xe915;" glyph-name="pause" horiz-adv-x="819" d="M230.093-64h-204.186c-0.061-0.001-0.133-0.001-0.205-0.001-14.159 0-25.644 11.45-25.702 25.595v972.806c0.058 14.151 11.543 25.601 25.702 25.601 0.072 0 0.144 0 0.216-0.001h204.175c0.061 0.001 0.133 0.001 0.205 0.001 14.159 0 25.644-11.45 25.702-25.595v-972.806c-0.058-14.151-11.543-25.601-25.702-25.601-0.072 0-0.144 0-0.216 0.001h0.011zM793.293-64h-204.186c-0.061-0.001-0.133-0.001-0.205-0.001-14.159 0-25.644 11.45-25.702 25.595v972.806c0.058 14.151 11.543 25.601 25.702 25.601 0.072 0 0.144 0 0.216-0.001h204.175c0.061 0.001 0.133 0.001 0.205 0.001 14.159 0 25.644-11.45 25.702-25.595v-972.806c-0.058-14.151-11.543-25.601-25.702-25.601-0.072 0-0.144 0-0.216 0.001h0.011z" />
<glyph unicode="&#xe916;" glyph-name="resume" d="M917.39 524.686l-713.728 422.002c-14.251 8.718-31.498 13.88-49.952 13.88-53.475 0-96.825-43.35-96.825-96.825 0-0.28 0.001-0.559 0.004-0.838v0.043-843.662c0.005-53.723 43.557-97.272 97.28-97.272 18.256 0 35.338 5.029 49.935 13.777l-0.442-0.245 713.728 421.66c28.796 17.244 47.773 48.276 47.773 83.74s-18.978 66.497-47.332 83.495l-0.442 0.245z" />
<glyph unicode="&#xe917;" glyph-name="stop" d="M914.33 960h-804.659c-60.546-0.058-109.612-49.125-109.67-109.665v-804.563c0-60.59 49.089-109.715 109.665-109.773h804.665c60.546 0.058 109.612 49.125 109.67 109.665v804.665c-0.058 60.546-49.125 109.612-109.665 109.67h-0.006z" />
<glyph unicode="&#xe918;" glyph-name="record" d="M1013.76 448c0-277.114-224.646-501.76-501.76-501.76s-501.76 224.646-501.76 501.76c0 277.114 224.646 501.76 501.76 501.76s501.76-224.646 501.76-501.76zM512-53.76c-276.48 0-501.76 225.28-501.76 501.76s225.28 501.76 501.76 501.76 501.76-225.28 501.76-501.76-225.28-501.76-501.76-501.76zM512 847.36c-225.28 0-399.36-174.080-399.36-399.36s184.32-399.36 399.36-399.36c225.28 0 399.36 184.32 399.36 399.36 0 225.28-174.080 399.36-399.36 399.36z" />
<glyph unicode="&#xe919;" glyph-name="recording" d="M1013.76 448c0-277.114-224.646-501.76-501.76-501.76s-501.76 224.646-501.76 501.76c0 277.114 224.646 501.76 501.76 501.76s501.76-224.646 501.76-501.76zM512-53.76c-276.48 0-501.76 225.28-501.76 501.76s225.28 501.76 501.76 501.76 501.76-225.28 501.76-501.76-225.28-501.76-501.76-501.76zM512 847.36c-225.28 0-399.36-174.080-399.36-399.36s184.32-399.36 399.36-399.36c225.28 0 399.36 184.32 399.36 399.36 0 225.28-174.080 399.36-399.36 399.36z" />
<glyph unicode="&#xe91a;" glyph-name="draft" horiz-adv-x="1170" d="M1170.286 667.429l-585.143 292.571-585.143-292.571 585.143-292.571zM585.143 862.908l390.917-195.48-390.917-195.48-390.917 195.48zM1053.257 506.64l117.029-58.514-585.143-292.571-585.143 292.571 117.029 58.514 468.114-234.057zM1053.257 287.211l117.029-58.514-585.143-292.571-585.143 292.571 117.029 58.514 468.114-234.057z" />
<glyph unicode="&#xe91b;" glyph-name="up" horiz-adv-x="1104" d="M773.398-64h-644.404c-71.242 0-128.994 57.753-128.994 128.994v0 564.28c0 71.242 57.753 128.994 128.994 128.994h644.404c0.502 0.007 1.094 0.012 1.688 0.012 20.106 0 39.083-4.834 55.831-13.404l-0.693 0.322 35.232-17.616-364.253-364.821 3.41-6.251h3.41l364.821 366.526 17.616-35.8c8.243-16.599 13.068-36.149 13.070-56.825v-564.281c-0.322-70.997-57.951-128.427-128.993-128.427-0.2 0-0.4 0-0.6 0.001h0.031zM128.994 701.443c-39.858 0-72.169-32.311-72.169-72.169v0-564.28c0-39.858 32.311-72.169 72.169-72.169v0h644.404c39.858 0 72.169 32.311 72.169 72.169v0 550.073l-298.335-298.903c-11.139-10.817-26.357-17.487-43.133-17.487-12.242 0-23.654 3.551-33.263 9.68l0.25-0.149-7.387 6.819-3.41 3.41c-9.021 10.616-14.508 24.481-14.508 39.627 0 16.919 6.846 32.238 17.919 43.34l298.334 298.334zM1064.346 920.222c-6.874 6.822-16.267 11.116-26.661 11.364l-0.047 0.001h-244.351c-1.297 0.181-2.796 0.284-4.318 0.284-18.203 0-32.959-14.756-32.959-32.959s14.756-32.959 32.959-32.959c1.523 0 3.021 0.103 4.489 0.303l-0.171-0.019h170.477l-146.042-146.61c20.236-9.826 36.203-25.793 45.774-45.449l0.255-0.58 145.474 144.906v-170.477c0-18.203 14.756-32.959 32.959-32.959v0c17.902 0.922 32.104 15.52 32.39 33.499v244.947c0.049 0.683 0.077 1.481 0.077 2.284 0 9.573-3.945 18.224-10.298 24.417l-0.007 0.007z" />
<glyph unicode="&#xe91c;" glyph-name="zoom-plus" horiz-adv-x="1011" d="M452.529 180.578c-187.471 0-340.021 152.55-340.021 340.021s152.55 340.021 340.021 340.021 340.021-152.55 340.021-340.021-152.55-340.021-340.021-340.021zM452.529 794.978c-151.237 0-274.379-123.143-274.379-274.379s123.143-274.379 274.379-274.379 274.379 123.143 274.379 274.379-123.011 274.379-274.379 274.379zM836.661 103.647c-8.402 0-16.804 3.151-23.237 9.584l-167.122 167.122c-12.866 12.866-12.866 33.608 0 46.474s33.608 12.866 46.474 0l167.122-167.122c12.866-12.866 12.866-33.608 0-46.474-6.564-6.302-14.966-9.584-23.237-9.584zM452.529 372.513c-18.117 0-32.821 14.704-32.821 32.821v230.4c0 18.117 14.704 32.821 32.821 32.821s32.821-14.704 32.821-32.821v-230.4c0-18.117-14.704-32.821-32.821-32.821zM567.795 487.778h-230.4c-18.117 0-32.821 14.704-32.821 32.821s14.704 32.821 32.821 32.821h230.4c18.117 0 32.821-14.704 32.821-32.821s-14.704-32.821-32.821-32.821z" />
<glyph unicode="&#xe91d;" glyph-name="zoom" horiz-adv-x="1056" d="M394.519 960h-364.963c-16.324 0-29.556-13.233-29.556-29.556v0-364.963c0-16.324 13.233-29.556 29.556-29.556v0h58.88c16.324 0 29.556 13.233 29.556 29.556v0 276.294h276.527c0 0 0.001 0 0.001 0 16.324 0 29.556 13.233 29.556 29.556 0 0.082 0 0.164-0.001 0.245v-0.012 58.88c0 16.324-13.233 29.556-29.556 29.556v0zM1026.932 960h-365.009c-16.324 0-29.556-13.233-29.556-29.556v0-58.88c0-16.324 13.233-29.556 29.556-29.556v0h276.294v-276.527c0-16.324 13.233-29.556 29.556-29.556v0h59.113c16.324 0 29.556 13.233 29.556 29.556v0 364.963c0 0 0 0 0 0 0 16.307-13.206 29.53-29.507 29.556h-0.003zM1026.932 360.076h-59.113c-16.324 0-29.556-13.233-29.556-29.556v0-276.294h-276.34c-16.324 0-29.556-13.233-29.556-29.556v0-59.113c0-16.324 13.233-29.556 29.556-29.556v0h364.963c16.324 0 29.556 13.233 29.556 29.556v0 365.056c-0.053 16.267-13.239 29.437-29.507 29.463h-0.003zM394.519 54.179h-276.294v276.387c0 16.324-13.233 29.556-29.556 29.556h-59.113c-16.324 0-29.556-13.233-29.556-29.556v0-364.963c0-16.324 13.233-29.556 29.556-29.556v0h364.963c16.324 0 29.556 13.233 29.556 29.556v0 59.113c-0.053 16.283-13.265 29.463-29.556 29.463 0 0 0 0 0 0v0z" />
<glyph unicode="&#xe91e;" glyph-name="eye-off" d="M514.875 76.888c-317.793 0-494.345 348.059-499.389 363.192-5.044 5.044-5.044 10.089 0 20.177 55.488 105.931 131.153 191.685 226.995 267.35 10.089 10.089 25.222 5.044 35.31-5.044s5.044-25.222-5.044-35.31c-85.754-65.576-156.374-146.286-206.818-242.128 30.266-60.532 196.729-322.837 448.946-322.837 85.754 0 171.507 30.266 242.128 85.754 10.089 10.089 25.222 5.044 35.31-5.044s5.044-25.222-5.044-35.31c-80.709-55.488-176.552-90.798-272.394-90.798zM898.245 283.706c-5.044 0-10.089 0-15.133 5.044-10.089 10.089-10.089 25.222-5.044 35.31 30.266 35.31 60.532 80.709 85.754 121.064-35.31 60.532-196.729 322.837-448.946 322.837-30.266 0-55.488-5.044-85.754-10.089-15.133 0-30.266 5.044-30.266 20.177-5.044 15.133 5.044 25.222 15.133 30.266 30.266 5.044 65.576 10.089 95.842 10.089 317.793 0 494.345-348.059 499.389-363.192 5.044-5.044 5.044-15.133 0-25.222-25.222-50.443-60.532-100.887-95.842-141.241-5.044 0-10.089-5.044-15.133-5.044zM509.831 288.75c-35.31 0-75.665 15.133-105.931 40.355-30.266 30.266-50.443 65.576-50.443 105.931s15.133 80.709 40.355 110.975c5.044 5.044 5.044 5.044 10.089 10.089 10.089 10.089 25.222 10.089 35.31 0s10.089-25.222 0-35.31c0 0-5.044-5.044-5.044-5.044-20.177-20.177-30.266-50.443-30.266-75.665 0-30.266 15.133-55.488 35.31-70.621 20.177-20.177 45.399-30.266 75.665-25.222 30.266 0 55.488 15.133 70.621 35.31 10.089 10.089 25.222 10.089 35.31 0s10.089-25.222 0-35.31c-30.266-40.355-70.621-55.488-110.975-55.488zM989.043-54.264c-5.044 0-15.133 0-20.177 5.044l-953.379 953.379c-5.044 10.089-5.044 30.266 0 40.355s25.222 10.089 35.31 0l953.379-953.379c10.089-10.089 10.089-25.222 0-35.31 0-10.089-10.089-10.089-15.133-10.089z" />
<glyph unicode="&#xe91f;" glyph-name="arrow-up" horiz-adv-x="994" d="M496.941 86.588v0c-24.094 0-45.176 21.082-45.176 45.176v542.118c0 24.094 21.082 45.176 45.176 45.176v0c24.094 0 45.176-21.082 45.176-45.176v-542.118c0-24.094-21.082-45.176-45.176-45.176zM132.518 399.812v0c-15.059 15.059-15.059 39.153 0 57.224l334.306 334.306c15.059 15.059 39.153 15.059 57.224 0v0c15.059-15.059 15.059-39.153 0-57.224l-337.318-334.306c-15.059-15.059-39.153-15.059-54.212 0zM861.365 399.812v0c-15.059-15.059-39.153-15.059-57.224 0l-334.306 334.306c-15.059 15.059-15.059 39.153 0 57.224v0c15.059 15.059 39.153 15.059 57.224 0l334.306-334.306c15.059-18.071 15.059-42.165 0-57.224z" />
<glyph unicode="&#xe920;" glyph-name="edit" horiz-adv-x="1263" d="M280.199 149.97c-10.189 0-15.284 5.095-20.378 10.189-10.189 10.189-10.189 25.473-10.189 25.473v5.095l35.662 132.458 458.507 463.602c35.662 35.662 96.796 35.662 132.458 0s35.662-96.796 0-132.458l-463.602-458.507-127.363-45.851c0 0 0 0-5.095 0zM331.144 302.806l-25.473-86.607 86.607 30.567 448.318 448.318c15.284 15.284 15.284 45.851 0 61.134s-45.851 15.284-61.134 0l-448.318-453.413zM855.881 149.97h-320.955c-15.284 0-25.473 10.189-25.473 25.473s10.189 25.473 25.473 25.473h320.955c15.284 0 25.473-10.189 25.473-25.473s-10.189-25.473-25.473-25.473z" />
<glyph unicode="&#xe921;" glyph-name="alert" horiz-adv-x="1317" d="M1042.004 273.582l-277.38 460.237c-37.134 57.952-113.653 74.831-171.042 37.697-15.191-9.565-28.132-22.505-37.697-37.697l-277.943-460.237c-19.692-33.196-20.818-74.831-1.688-108.589 21.943-38.259 62.453-61.89 106.338-61.327h554.76c43.886-0.563 84.396 22.505 106.338 60.202 19.13 34.321 18.567 76.519-1.688 109.714v0zM980.114 199.314c-9.002-15.191-25.319-24.193-42.76-23.631h-554.76c-17.442-0.563-34.321 8.44-42.76 23.631-6.189 11.253-6.189 24.756 0 36.009l277.943 460.237c18.004 23.631 51.2 28.132 74.831 10.127 3.938-2.813 7.314-6.189 10.127-10.127l277.38-460.237c6.752-10.69 6.752-24.193 0-36.009zM695.982 284.835c0-19.692-16.316-36.009-36.009-36.009s-36.009 16.316-36.009 36.009c0 19.692 16.316 36.009 36.009 36.009s36.009-16.316 36.009-36.009c0 0 0 0 0 0zM659.974 574.031c-19.692 0-36.009-16.316-36.009-36.009v0-144.598c0-19.692 16.316-36.009 36.009-36.009s36.009 16.316 36.009 36.009v144.035c0 20.255-16.316 36.571-36.009 36.571z" />
<glyph unicode="&#xe922;" glyph-name="sort" d="M42.667 132.267h315.733v106.667h-315.733v-106.667zM42.667 763.733v-106.667h938.667v106.667h-938.667zM42.667 396.8h627.2v106.667h-627.2v-106.667z" />
<glyph unicode="&#xe923;" glyph-name="excel" d="M904.533 729.6c12.8-12.8 21.333-25.6 25.6-38.4 4.267-17.067 8.533-34.133 8.533-46.933v-610.133c0-29.867-21.333-51.2-51.2-51.2 0 0 0 0 0 0h-712.533c-29.867 0-51.2 21.333-51.2 51.2 0 0 0 0 0 0v844.8c0 29.867 21.333 51.2 51.2 51.2 0 0 0 0 0 0h473.6c17.067 0 29.867-4.267 46.933-8.533 12.8-4.267 29.867-12.8 38.4-25.6l170.667-166.4zM669.867 857.6v-196.267h200.533c-4.267 8.533-4.267 17.067-12.8 21.333l-166.4 166.4c-8.533 4.267-17.067 8.533-21.333 8.533zM870.4 51.2v541.867h-221.867c-29.867 0-51.2 21.333-51.2 51.2 0 0 0 0 0 0v217.6h-405.333v-810.667h678.4zM354.133 174.933v-55.467h149.333v55.467h-38.4l55.467 85.333c0 4.267 4.267 4.267 4.267 8.533s4.267 4.267 4.267 8.533c0 0 0 0 0 0v0c0 0 0-4.267 4.267-4.267 0 0 0-4.267 4.267-4.267 0 0 0-4.267 4.267-4.267l4.267-4.267 55.467-85.333h-38.4v-55.467h153.6v55.467h-34.133l-110.933 145.067 102.4 149.333h34.133v55.467h-149.333v-55.467h38.4l-55.467-85.333c0-4.267-4.267-4.267-4.267-8.533s-4.267-4.267-4.267-8.533v0 0c0 0 0 4.267-4.267 4.267-4.267 4.267-4.267 8.533-8.533 12.8l-55.467 85.333h38.4v55.467h-149.333v-55.467h34.133l98.133-145.067-102.4-149.333h-29.867z" />
<glyph unicode="&#xe924;" glyph-name="pdf" d="M874.667 708.267c12.8-12.8 21.333-25.6 25.6-38.4s8.533-29.867 8.533-46.933v-597.333c0-25.6-21.333-51.2-51.2-51.2 0 0 0 0 0 0h-691.2c-25.6 0-51.2 21.333-51.2 51.2 0 0 0 0 0 0v832c0 25.6 21.333 51.2 46.933 51.2 0 0 0 0 0 0h465.067c17.067 0 29.867-4.267 46.933-8.533 12.8-4.267 29.867-12.8 38.4-25.6l162.133-166.4zM644.267 836.267v-196.267h196.267c-4.267 8.533-4.267 17.067-12.8 21.333l-162.133 162.133c-4.267 4.267-12.8 8.533-21.333 12.8v0zM844.8 42.667v533.333h-213.333c-25.6 0-51.2 21.333-51.2 51.2 0 0 0 0 0 0v213.333h-401.067v-793.6c0-4.267 665.6-4.267 665.6-4.267zM576 349.867c12.8-8.533 29.867-21.333 42.667-29.867 21.333 4.267 38.4 4.267 59.733 4.267 51.2 0 81.067-8.533 89.6-25.6 4.267-8.533 4.267-17.067 0-25.6 0 0 0 0 0 0v0 0c0-12.8-12.8-21.333-38.4-21.333-21.333 0-38.4 4.267-59.733 8.533-21.333 8.533-46.933 17.067-68.267 25.6-68.267-8.533-136.533-21.333-204.8-42.667-51.2-89.6-93.867-136.533-123.733-136.533-4.267 0-8.533 0-12.8 4.267l-4.267 8.533c0 0 0 0-4.267 4.267s-4.267 12.8-4.267 17.067c4.267 17.067 17.067 34.133 29.867 46.933 21.333 21.333 42.667 38.4 68.267 51.2 4.267 4.267 8.533 4.267 8.533 0 0 0 0 0 0-4.267 0 0 0 0 0 0 17.067 29.867 38.4 64 55.467 102.4 21.333 42.667 38.4 89.6 55.467 136.533-8.533 25.6-12.8 55.467-17.067 81.067-4.267 21.333 0 42.667 4.267 64 4.267 12.8 12.8 21.333 21.333 21.333h12.8c8.533 0 12.8-4.267 17.067-8.533 8.533-8.533 12.8-21.333 8.533-34.133 0 0 0-4.267 0-4.267s0-4.267 0-4.267v-17.067c0-34.133-4.267-68.267-8.533-98.133 12.8-46.933 38.4-89.6 72.533-123.733v0zM277.333 136.533c29.867 21.333 55.467 51.2 72.533 81.067-17.067-12.8-29.867-25.6-46.933-42.667-8.533-8.533-17.067-21.333-25.6-38.4v0zM486.4 614.4c-4.267-21.333-4.267-46.933 0-68.267 0 4.267 0 8.533 4.267 21.333 0 0 0 8.533 4.267 21.333 0 0 0 4.267 0 4.267s0 0 0 0 0 0 0 0 0 0 0 0c0 12.8-4.267 17.067-8.533 21.333 0 4.267 0 0 0 0v0 0zM422.4 273.067c46.933 17.067 98.133 34.133 145.067 42.667-4.267 0-4.267 4.267-8.533 4.267 0 0-4.267 4.267-4.267 8.533-29.867 25.6-51.2 55.467-64 89.6-12.8-34.133-25.6-68.267-42.667-102.4-12.8-21.333-21.333-34.133-25.6-42.667v0zM755.2 281.6c-21.333 12.8-46.933 17.067-72.533 12.8 21.333-8.533 42.667-12.8 64-12.8 4.267-4.267 4.267-4.267 8.533 0 0 0 0 0 0 0z" />
<glyph unicode="&#xe925;" glyph-name="pin" horiz-adv-x="961" d="M634.044 532.219h-285.048c-35.109 0.627-63.948-27.167-64.575-62.276s27.167-63.948 62.276-64.575c0.836 0 1.463 0 2.508 0h285.048c35.109 0.627 62.694 29.466 62.276 64.575-0.836 34.273-28.421 61.649-62.485 62.276zM380.343 563.984h221.727l-34.273 189.962h-153.391l-34.064-189.962zM491.52 88.764l47.438 285.048h-95.086l47.647-285.048zM586.606 880.797h-189.962c-26.122 0-47.438-21.316-47.438-47.438s21.316-47.438 47.438-47.438v0h189.962c26.122-0.627 48.065 20.271 48.274 46.393 0.627 26.122-20.271 48.065-46.393 48.274-0.627 0.209-1.254 0.209-1.881 0.209v0z" />
<glyph unicode="&#xf00c;" glyph-name="check" d="M954.857 627.428c0-14.286-5.714-28.571-16-38.857l-491.429-491.429c-10.286-10.286-24.571-16-38.857-16s-28.571 5.714-38.857 16l-284.571 284.571c-10.286 10.286-16 24.571-16 38.857s5.714 28.571 16 38.857l77.714 77.714c10.286 10.286 24.571 16 38.857 16s28.571-5.714 38.857-16l168-168.571 374.857 375.429c10.286 10.286 24.571 16 38.857 16s28.571-5.714 38.857-16l77.714-77.714c10.286-10.286 16-24.571 16-38.857z" />
<glyph unicode="&#xf021;" glyph-name="switch" horiz-adv-x="878" d="M863.429 347.428c0-1.143 0-2.857-0.571-4-48.571-202.286-215.429-343.429-426.286-343.429-111.429 0-219.429 44-300.571 121.143l-73.714-73.714c-6.857-6.857-16-10.857-25.714-10.857-20 0-36.571 16.571-36.571 36.571v256c0 20 16.571 36.571 36.571 36.571h256c20 0 36.571-16.571 36.571-36.571 0-9.714-4-18.857-10.857-25.714l-78.286-78.286c53.714-50.286 125.143-78.857 198.857-78.857 101.714 0 196 52.571 249.143 139.429 13.714 22.286 20.571 44 30.286 66.857 2.857 8 8.571 13.143 17.143 13.143h109.714c10.286 0 18.286-8.571 18.286-18.286zM877.714 804.571v-256c0-20-16.571-36.571-36.571-36.571h-256c-20 0-36.571 16.571-36.571 36.571 0 9.714 4 18.857 10.857 25.714l78.857 78.857c-54.286 50.286-125.714 78.286-199.429 78.286-101.714 0-196-52.571-249.143-139.429-13.714-22.286-20.571-44-30.286-66.857-2.857-8-8.571-13.143-17.143-13.143h-113.714c-10.286 0-18.286 8.571-18.286 18.286v4c49.143 202.857 217.714 343.429 428.571 343.429 112 0 221.143-44.571 302.286-121.143l74.286 73.714c6.857 6.857 16 10.857 25.714 10.857 20 0 36.571-16.571 36.571-36.571z" />
<glyph unicode="&#xf04b;" glyph-name="play" horiz-adv-x="809" d="M790.857 421.143l-758.857-421.714c-17.714-9.714-32-1.143-32 18.857v841.143c0 20 14.286 28.571 32 18.857l758.857-421.714c17.714-9.714 17.714-25.714 0-35.429z" />
<glyph unicode="&#xf067;" glyph-name="plus" horiz-adv-x="805" d="M804.571 530.286v-109.714c0-30.286-24.571-54.857-54.857-54.857h-237.714v-237.714c0-30.286-24.571-54.857-54.857-54.857h-109.714c-30.286 0-54.857 24.571-54.857 54.857v237.714h-237.714c-30.286 0-54.857 24.571-54.857 54.857v109.714c0 30.286 24.571 54.857 54.857 54.857h237.714v237.714c0 30.286 24.571 54.857 54.857 54.857h109.714c30.286 0 54.857-24.571 54.857-54.857v-237.714h237.714c30.286 0 54.857-24.571 54.857-54.857z" />
<glyph unicode="&#xf068;" glyph-name="minus" horiz-adv-x="805" d="M804.571 530.286v-109.714c0-30.286-24.571-54.857-54.857-54.857h-694.857c-30.286 0-54.857 24.571-54.857 54.857v109.714c0 30.286 24.571 54.857 54.857 54.857h694.857c30.286 0 54.857-24.571 54.857-54.857z" />
<glyph unicode="&#xf0d7;" glyph-name="arrow" horiz-adv-x="585" d="M585.143 548.571c0-9.714-4-18.857-10.857-25.714l-256-256c-6.857-6.857-16-10.857-25.714-10.857s-18.857 4-25.714 10.857l-256 256c-6.857 6.857-10.857 16-10.857 25.714 0 20 16.571 36.571 36.571 36.571h512c20 0 36.571-16.571 36.571-36.571z" />
</font>
</defs>
</svg>
